PathFileType	4	(X/Y/Z)	./resultDataOpenSim/trcMotMarkerGrf/sub09/qtm-12-01.trc
DataRate	CameraRate	NumFrames	NumMarkers	Units	OrigDataRate	OrigDataStartFrame	OrigNumFrames
250.000000	250.000000	13	24	m	250.000000	385	513
Frame#	Time	L.Toe.Tip			R.Toe.Tip			L.Ankle.Lat			R.Ankle.Lat			L.Ankle.Med			R.Ankle.Med			L.Heel			R.Heel			L.Knee.Lat			R.Knee.Lat			L.Knee.Med			R.Knee.Med			L.Thigh.Upper			R.Thigh.Upper			L.ASIS			R.ASIS			V.Sacral			L.Acromium			R.Acromium			C7			L.Elbow			R.Elbow			L.Wrist.Lat			R.Wrist.Lat
		X1	Y1	Z1	X2	Y2	Z2	X3	Y3	Z3	X4	Y4	Z4	X5	Y5	Z5	X6	Y6	Z6	X7	Y7	Z7	X8	Y8	Z8	X9	Y9	Z9	X10	Y10	Z10	X11	Y11	Z11	X12	Y12	Z12	X13	Y13	Z13	X14	Y14	Z14	X15	Y15	Z15	X16	Y16	Z16	X17	Y17	Z17	X18	Y18	Z18	X19	Y19	Z19	X20	Y20	Z20	X21	Y21	Z21	X22	Y22	Z22	X23	Y23	Z23	X24	Y24	Z24

385	1.536	1.1044884	0.079334218	-0.041313082	1.030175	0.039210432	0.096151848	0.97413334	0.15314402	-0.081720077	0.8806302	0.05693778	0.12873964	0.99916232	0.15247074	0.014517604	0.8982991	0.097373222	0.037967409	0.89209275	0.1285689	-0.037442223	0.81301442	0.036443898	0.078318831	1.1545934	0.52786983	-0.076774098	0.99497664	0.50055725	0.19338669	1.1484579	0.51830117	0.0468528	0.97794662	0.49085221	0.067806943	0.96800613	0.89935751	-0.11932864	0.93664287	0.90543943	0.25270509	1.0322097	0.98898006	-0.05735485	1.0293724	0.99417283	0.18364215	0.86424176	1.0428947	0.057360943	1.0214466	1.4401152	-0.11204841	1.0064451	1.4595869	0.21873725	0.94641628	1.4973041	0.051238795	0.85137163	1.116413	-0.17598946	0.84379822	1.137949	0.31773883	0.96968842	0.87783965	-0.19386631	0.97612835	0.89577352	0.33332766
386	1.54	1.1232859	0.078575588	-0.040314265	1.0305049	0.039300969	0.096202401	0.99093493	0.1486075	-0.080687376	0.88069448	0.057000065	0.12859856	1.0162724	0.14882316	0.015446711	0.89837708	0.097440188	0.037893683	0.90992544	0.12186983	-0.036268656	0.81296823	0.036521065	0.077976608	1.1611836	0.52865779	-0.076525888	0.99616654	0.50041273	0.19347286	1.1548849	0.51898705	0.047024736	0.97915581	0.49076343	0.067812752	0.97194767	0.89942468	-0.11959519	0.94119291	0.90570336	0.25265026	1.0373974	0.98930092	-0.0573314	1.0342826	0.9943701	0.18369133	0.86922382	1.0430266	0.057237454	1.0260223	1.4403005	-0.1121491	1.0112504	1.4598463	0.21865611	0.95100697	1.497553	0.051128222	0.85574936	1.1166852	-0.17587156	0.84898392	1.1380193	0.31790064	0.9737848	0.87801427	-0.19400125	0.98194344	0.89615444	0.33301321
387	1.544	1.142078	0.077946963	-0.03936967	1.0307577	0.03929329	0.096202135	1.0077604	0.14425835	-0.07956109	0.88073394	0.057057478	0.12844584	1.0331632	0.14517957	0.016521546	0.89836473	0.097527197	0.037753576	0.92784798	0.11534874	-0.035038048	0.81286467	0.036591639	0.07755292	1.1676107	0.52930134	-0.076326818	0.99736271	0.50026731	0.19356543	1.1612619	0.51951829	0.0471568	0.98058979	0.49059693	0.067859184	0.97582191	0.89939497	-0.11982709	0.94578647	0.90594628	0.25258875	1.0425963	0.98954177	-0.057311165	1.0391939	0.99452204	0.18373336	0.87423261	1.0431036	0.057090111	1.0306098	1.4404217	-0.11225463	1.0160389	1.4600416	0.21857289	0.95560561	1.4977339	0.051018613	0.86016711	1.1169014	-0.17574088	0.85415209	1.1380224	0.31803434	0.97790184	0.8781045	-0.19413919	0.9877669	0.8964738	0.33269058
388	1.548	1.1608368	0.077479242	-0.038482048	1.0308818	0.039197223	0.096160512	1.0246188	0.14005847	-0.078357807	0.88075648	0.0571083	0.12828516	1.0500149	0.14162692	0.017671821	0.89833449	0.097598974	0.037526456	0.94571658	0.10904659	-0.03368021	0.81275803	0.036676439	0.077149162	1.1738841	0.52979589	-0.076173232	0.99858042	0.50009717	0.19367286	1.1675949	0.51989269	0.047254766	0.98204901	0.49042188	0.067860579	0.98007812	0.89936654	-0.11996984	0.95041491	0.90616232	0.25252187	1.0478171	0.98970275	-0.057299949	1.0441086	0.99462767	0.18377215	0.87927573	1.0431158	0.056915087	1.0352063	1.4404797	-0.11236295	1.0208064	1.4601704	0.21848288	0.96026628	1.49784	0.05095121	0.86462137	1.1170604	-0.17560593	0.85930329	1.1379561	0.31814338	0.98203357	0.87812251	-0.1942757	0.99359714	0.89673091	0.33236315
389	1.552	1.1795336	0.077191079	-0.037651261	1.0308651	0.039110336	0.096126002	1.0415417	0.13595756	-0.077134801	0.88076937	0.057150527	0.12811949	1.0669714	0.13828598	0.018836621	0.89841777	0.097599832	0.037293484	0.96349466	0.10298533	-0.03218217	0.81269273	0.036789618	0.076847733	1.1800212	0.53014114	-0.076060101	0.99982904	0.49988619	0.19379387	1.1738156	0.5201032	0.047324046	0.98339522	0.49029984	0.067761236	0.98489595	0.89936868	-0.12005577	0.95504278	0.90633427	0.25245323	1.0530672	0.9897843	-0.057299418	1.0490272	0.99468275	0.18380727	0.88434896	1.0430544	0.05671456	1.039811	1.4404765	-0.1124701	1.0255614	1.4602322	0.21838523	0.96497417	1.4978682	0.05091833	0.8691015	1.117157	-0.17547742	0.86444313	1.13782	0.318233	0.98617425	0.8780773	-0.19440781	0.99941914	0.89692295	0.33204136
390	1.556	1.1981552	0.07708358	-0.036874944	1.0307053	0.039113202	0.096136677	1.0585054	0.1319744	-0.075925009	0.88077396	0.05718232	0.12795027	1.0841012	0.13520789	0.01998498	0.8986363	0.097536031	0.037128216	0.98129373	0.097151852	-0.030594495	0.81266902	0.036915936	0.076638744	1.1860292	0.5303362	-0.075983394	1.0011102	0.49964668	0.19392032	1.1798855	0.5201465	0.047373753	0.98473796	0.49022047	0.067593199	0.99042277	0.8993847	-0.12013008	0.95964304	0.9064474	0.25238524	1.0583463	0.98978644	-0.057305175	1.053949	0.99468332	0.18383798	0.88944072	1.0429175	0.056494951	1.0444256	1.4404164	-0.11257529	1.0303187	1.4602281	0.21828353	0.96968982	1.4978116	0.050889454	0.8736038	1.1171855	-0.17535904	0.86957686	1.1376167	0.3183063	0.99032105	0.87797288	-0.19453854	1.0052192	0.89704831	0.33173388
391	1.56	1.2167031	0.077149171	-0.036149364	1.0304318	0.039219405	0.096194303	1.0754543	0.12816701	-0.07472332	0.88076867	0.057203387	0.12777919	1.1013746	0.13234529	0.021129181	0.89887174	0.097470326	0.037006918	0.99933473	0.091485661	-0.028980462	0.81266386	0.037024919	0.076460748	1.191904	0.53037712	-0.075943987	1.0024181	0.49941122	0.19403553	1.1858379	0.52002747	0.04740851	0.98619832	0.49015323	0.067373548	0.99662339	0.89937568	-0.12020907	0.96422512	0.90650026	0.25231915	1.0636473	0.98970649	-0.057309003	1.0588744	0.99463026	0.18386951	0.89454315	1.0427115	0.05626156	1.0490534	1.440309	-0.11268989	1.0350906	1.4601615	0.21818492	0.97437933	1.4976653	0.05083554	0.87812877	1.1171418	-0.17524886	0.8747061	1.1373494	0.31836309	0.99447969	0.87780798	-0.19467594	1.0109959	0.89710824	0.33144102
392	1.564	1.2351768	0.077388157	-0.035469323	1.0301419	0.039381675	0.09626864	1.092364	0.12457058	-0.073513263	0.88075353	0.057216964	0.12760825	1.1187089	0.12963866	0.022297477	0.89903408	0.097433668	0.036876323	1.0177654	0.085926323	-0.027342137	0.81265863	0.037103674	0.076272373	1.1976413	0.53025936	-0.075946881	1.0037322	0.49918623	0.19410274	1.1917273	0.51975614	0.047421135	0.98767999	0.49010032	0.067055826	1.0030524	0.89929636	-0.12028324	0.9688233	0.90650344	0.2522579	1.0689618	0.98953726	-0.057304412	1.0638024	0.99452615	0.18390872	0.89965995	1.0424478	0.056015637	1.0536964	1.4401626	-0.11283347	1.0398824	1.4600385	0.21809699	0.97903108	1.4974404	0.050745261	0.88267221	1.1170261	-0.17514906	0.87983178	1.1370195	0.31840328	0.99866017	0.8775785	-0.19482554	1.016753	0.89710349	0.33115808
393	1.568	1.2535635	0.077816524	-0.034827424	1.0299392	0.039523135	0.096322569	1.1092603	0.12117868	-0.072285481	0.88073459	0.057229115	0.12743964	1.1360376	0.12708611	0.023493284	0.89913177	0.097408638	0.036722403	1.036529	0.080478096	-0.025611522	0.8126461	0.037160882	0.076068774	1.2032427	0.52998027	-0.075993868	1.0050203	0.49893296	0.19407449	1.1975728	0.519346	0.047397735	0.98900203	0.49006316	0.066631457	1.0091634	0.89911476	-0.12033907	0.973467	0.90646851	0.25220381	1.0742848	0.98927231	-0.057291942	1.0687294	0.99437031	0.18395714	0.9048011	1.0421354	0.055758582	1.058353	1.4399722	-0.11301417	1.0446956	1.4598648	0.21802608	0.98366852	1.4971625	0.050631046	0.88722826	1.1168421	-0.17506616	0.88495535	1.1366261	0.31842913	1.0028643	0.87728091	-0.19498528	1.02249	0.89703135	0.33088056
394	1.572	1.2718436	0.078455083	-0.034217016	1.0298417	0.039593408	0.09633982	1.1261779	0.11796957	-0.071041539	0.8807226	0.057245094	0.12727644	1.1533355	0.12473509	0.024686985	0.89920435	0.097376032	0.036558102	1.0554006	0.075252783	-0.023782829	0.81262841	0.037209129	0.075861538	1.2087156	0.5295393	-0.076084769	1.0062698	0.49861746	0.19394148	1.2033707	0.51881254	0.047332684	0.99015285	0.48999884	0.066193945	1.0147931	0.89882247	-0.12037408	0.97816405	0.90639733	0.25215591	1.0796206	0.988915	-0.057277853	1.073654	0.99416005	0.18401326	0.90997038	1.0417724	0.055496236	1.0630186	1.4397173	-0.11321367	1.0495236	1.4596378	0.21797155	0.98833191	1.4968494	0.050517749	0.89179773	1.1165919	-0.17499767	0.89007363	1.1361677	0.31844076	1.0070871	0.87691281	-0.19515081	1.028203	0.89688742	0.33060679
395	1.576	1.2899969	0.079312796	-0.03363865	1.0297934	0.039596752	0.096325909	1.1431007	0.11495197	-0.069786331	0.88072464	0.0572675	0.12712098	1.1705973	0.12263717	0.025847554	0.89927803	0.097333453	0.036397646	1.0740845	0.070456882	-0.022024227	0.81261199	0.037255523	0.075659475	1.2140728	0.52893867	-0.076229239	1.0075187	0.49825824	0.1937676	1.209115	0.51816645	0.047232206	0.99131515	0.48985342	0.06587137	1.0201329	0.89842576	-0.12039483	0.98290701	0.90628402	0.25211324	1.0849803	0.98847611	-0.057265958	1.0785817	0.99389512	0.18407632	0.91515816	1.0413465	0.055235142	1.0676897	1.4393805	-0.11340007	1.0543432	1.4593429	0.21791972	0.99303749	1.4964961	0.050422728	0.89638858	1.1162742	-0.17493252	0.89518214	1.1356428	0.31843642	1.0113304	0.87647404	-0.19532206	1.0338913	0.89666963	0.3303384
396	1.58	1.3080018	0.080381324	-0.03309807	1.0297415	0.039565037	0.096292898	1.1599631	0.11217034	-0.068518689	0.8807393	0.057297959	0.12697135	1.1878138	0.12081558	0.02697016	0.89936598	0.097287147	0.036246184	1.0924018	0.066229379	-0.020490521	0.81260168	0.037304634	0.075463194	1.2193279	0.52818688	-0.076449594	1.0088313	0.49790428	0.19364835	1.2147883	0.51741345	0.047099763	0.9926565	0.48963457	0.065725032	1.0253975	0.89793348	-0.12040866	0.98768779	0.90612437	0.25207681	1.090367	0.98796256	-0.057250792	1.0835229	0.99357858	0.18414409	0.92034895	1.0408457	0.054972103	1.0723675	1.4389631	-0.11355625	1.0591319	1.4589669	0.21785437	0.99776752	1.4960818	0.050342956	0.90100856	1.1158882	-0.17486583	0.90028784	1.1350549	0.31842406	1.0156024	0.87596798	-0.19550166	1.0395606	0.89638163	0.33007672
397	1.584	1.3258351	0.081644711	-0.032595129	1.0296781	0.039523888	0.096253186	1.1767092	0.10965599	-0.067242044	0.88075754	0.057339429	0.12682279	1.2049694	0.11926626	0.028059309	0.89947244	0.09724509	0.036099204	1.1104512	0.062481498	-0.019062391	0.81259759	0.037362735	0.075269356	1.2244946	0.52729758	-0.07676149	1.0102426	0.49758215	0.19363396	1.2203804	0.51656129	0.046928716	0.99418155	0.48940589	0.065718106	1.0306747	0.89735292	-0.12041947	0.99250081	0.90591939	0.25204492	1.0957692	0.98737412	-0.05722262	1.0884827	0.99321288	0.18421323	0.92553634	1.0402703	0.054693105	1.077057	1.4384755	-0.11369045	1.0639003	1.4585134	0.2177683	1.0024947	1.49559	0.050258423	0.90566037	1.1154375	-0.17480222	0.90541128	1.1344134	0.3184254	1.0199041	0.87539923	-0.19569102	1.0452206	0.89603218	0.3298193
